<svg xmlns="http://www.w3.org/2000/svg" height="32" viewBox="0 -960 960 960" width="32">
  <!-- dashboard_2 base icon (dark blue, matches sidebar) -->
  <path fill="#111827" d="M600-160v-280h280v280H600ZM440-520v-280h440v280H440ZM80-160v-280h440v280H80Zm0-360v-280h280v280H80Zm440-80h280v-120H520v120ZM160-240h280v-120H160v120Zm520 0h120v-120H680v120ZM160-600h120v-120H160v120Zm360 0Zm-80 240Zm240 0ZM280-600Z"/>
  <!-- edit pencil overlay in bottom-right, accent purple -->
  <path fill="#8b5cf6" d="M820-80l-60-60 40-40 60 60-40 40Zm-160-60l180-180-40-40-180 180v40h40Z" transform="scale(0.42) translate(1040 -200)"/>
</svg>